<svg version="1.1" id="Layer_1" xmlns="http://www.w3.org/2000/svg" xmlns:xlink="http://www.w3.org/1999/xlink" x="0px" y="0px"
	 width="100%" viewBox="0 0 225 225" enable-background="new 0 0 225 225" xml:space="preserve">
<path fill="#FFFFFF" opacity="1.000000" stroke="none" 
	d="
M156.000000,226.000000 
	C104.000000,226.000000 52.500008,226.000000 1.000007,226.000000 
	C1.000005,151.000000 1.000005,76.000015 1.000002,1.000017 
	C75.999992,1.000011 150.999985,1.000011 225.999969,1.000006 
	C225.999985,75.999985 225.999985,150.999969 226.000000,225.999969 
	C202.833328,226.000000 179.666672,226.000000 156.000000,226.000000 
M140.248199,143.583969 
	C141.465027,145.733414 142.681854,147.882843 144.017212,150.730240 
	C145.674988,153.161896 147.332764,155.593552 149.276169,158.633316 
	C152.154861,160.474182 155.033554,162.315048 158.403442,164.671127 
	C160.278214,165.099365 162.153000,165.527588 164.664352,166.428741 
	C169.379013,165.903076 174.338074,166.129883 178.757309,164.694611 
	C187.865982,161.736298 197.601807,149.874390 194.966095,139.203079 
	C194.950394,138.122787 194.934692,137.042496 195.308411,135.555283 
	C194.916977,134.520462 194.525543,133.485641 194.114975,131.836105 
	C194.055588,131.224594 193.996201,130.613098 194.101517,129.123459 
	C193.379974,124.755508 192.658417,120.387566 192.003769,115.215866 
	C191.371658,112.798271 190.739548,110.380669 190.083450,107.072784 
	C189.611450,103.386566 189.139450,99.700348 188.733002,95.249855 
	C188.140533,92.838631 187.548080,90.427399 186.996674,87.212173 
	C185.728546,83.774635 184.460419,80.337097 183.000793,76.233910 
	C180.737717,74.118149 178.474640,72.002388 176.073212,69.200806 
	C174.106659,67.692673 172.140121,66.184540 169.713028,64.167595 
	C166.807312,63.145351 163.901581,62.123108 160.234512,60.777134 
	C156.153961,60.574692 152.073410,60.372246 147.082382,60.061619 
	C143.717804,60.107826 140.353226,60.154030 136.080017,60.080959 
	C132.703049,60.112457 129.326080,60.143959 125.031059,60.063847 
	C120.061066,60.192928 115.091080,60.322010 109.249794,60.354286 
	C104.508179,60.424500 99.766563,60.494717 94.214317,60.423553 
	C91.122963,60.332081 88.031609,60.240608 84.032394,60.029766 
	C80.336693,60.072395 76.640999,60.115025 72.105171,60.080635 
	C53.930199,61.263893 42.236618,72.342873 39.180767,91.525192 
	C38.728008,93.905136 37.491062,97.010254 40.971172,97.639526 
	C44.639282,98.302803 44.777290,94.990654 45.091797,92.342094 
	C45.264908,90.884254 45.552898,89.440063 46.015495,87.269257 
	C48.279392,76.168655 55.839504,70.266365 66.833549,66.958687 
	C69.891098,66.617867 72.948654,66.277054 76.502594,66.024773 
	C76.666985,65.989799 76.831383,65.954834 77.657036,66.031685 
	C78.100960,65.993935 78.544876,65.956177 79.900589,66.050575 
	C83.537186,66.072792 87.173775,66.095009 90.914238,66.923805 
	C92.020264,69.924416 93.126289,72.925018 94.491867,76.556122 
	C98.029800,80.056686 102.406197,80.351952 107.916985,79.941490 
	C111.941856,79.898438 115.966721,79.855385 120.855812,79.940842 
	C130.206848,79.995667 132.924301,77.904671 135.442169,68.884842 
	C135.731339,67.848961 136.470657,66.938744 137.905823,66.060181 
	C140.936813,66.029633 143.967804,65.999084 147.660812,66.060715 
	C148.104279,66.030579 148.547745,66.000443 149.883392,66.051033 
	C152.558655,66.103951 155.233902,66.156876 158.455368,66.658829 
	C161.256195,67.544830 164.057037,68.430832 167.262146,69.803429 
	C169.190552,71.176941 171.118973,72.550453 173.334869,74.522644 
	C175.171600,76.769501 177.008347,79.016357 178.923889,82.046570 
	C179.668564,85.362839 180.413223,88.679115 181.098984,92.766876 
	C181.675537,94.934532 182.252106,97.102180 182.850449,100.122131 
	C183.555679,104.107437 184.260910,108.092751 184.941452,112.949966 
	C185.167969,114.377136 185.394470,115.804306 185.551392,117.545418 
	C185.640030,117.757744 185.789200,117.911606 186.000610,118.000275 
	C186.000610,118.000275 185.994827,118.001381 185.955673,118.864899 
	C186.697891,123.247787 187.440125,127.630676 188.141174,132.715652 
	C188.236359,133.173264 188.331528,133.630875 188.379929,134.512497 
	C188.494186,134.791458 188.687531,134.995651 188.937958,135.983917 
	C188.998581,137.990692 189.059189,139.997467 188.942551,142.728271 
	C186.543625,153.453293 179.488556,159.089447 168.253662,160.709259 
	C165.547073,160.280777 162.840469,159.852310 159.667953,158.995697 
	C157.181458,157.289566 154.694946,155.583420 151.969986,153.232208 
	C150.340118,150.744873 148.710251,148.257538 147.011185,145.086288 
	C145.739944,142.945633 144.468689,140.804977 143.001389,138.064362 
	C141.721008,137.010239 140.440643,135.956131 138.728439,134.300491 
	C134.484726,133.554398 130.241028,132.808304 125.100357,131.969193 
	C122.395432,131.997711 119.690506,132.026230 116.497169,131.981369 
	C116.497169,131.981369 116.006500,132.037781 115.339714,131.955521 
	C114.893578,131.983200 114.447441,132.010895 113.083092,131.952118 
	C109.386909,131.992584 105.690735,132.033051 101.086853,131.975739 
	C90.048943,130.461258 82.997879,135.670914 78.960548,145.462952 
	C75.387360,154.129242 69.267403,159.426849 59.248234,160.772079 
	C56.834217,160.508453 54.420200,160.244827 51.544445,159.834106 
	C51.544445,159.834106 51.069923,159.735809 50.683022,159.318069 
	C50.140526,159.160370 49.598030,159.002670 48.680466,158.317596 
	C46.844715,157.087357 45.008961,155.857117 42.804283,154.079498 
	C41.279560,151.683548 39.754833,149.287613 38.148106,146.133499 
	C37.757599,144.421967 37.367092,142.710449 37.079037,140.199707 
	C37.625282,137.286835 38.464069,134.385925 38.583714,131.455627 
	C38.636681,130.158356 37.488995,128.458282 36.374348,127.630455 
	C35.886295,127.267990 33.167496,128.516769 33.080341,129.231323 
	C32.483738,134.122757 32.316990,139.066635 31.969952,144.742020 
	C32.384022,146.157379 32.798092,147.572723 33.332409,149.656906 
	C35.221237,152.437958 37.110065,155.219025 39.292267,158.606476 
	C42.176235,160.457977 45.060204,162.309479 48.434418,164.691406 
	C51.958687,165.340622 55.482956,165.989838 59.800667,166.805099 
	C71.193565,165.908707 79.527771,160.399612 83.984741,149.858002 
	C87.253189,142.127518 91.783684,136.835754 101.910393,137.931122 
	C105.602753,137.888611 109.295120,137.846115 113.898865,137.932175 
	C117.266464,137.895401 120.634056,137.858612 124.892593,137.938217 
	C127.869965,137.982773 130.847336,138.027344 134.277802,138.564285 
	C136.198166,140.019470 138.118530,141.474655 140.248199,143.583969 
M82.739845,90.197311 
	C82.391266,85.699348 83.083199,80.659576 76.115273,78.972763 
	C65.641220,78.731972 65.641220,78.731972 63.426128,90.687965 
	C62.059467,90.766571 60.615597,90.834419 59.174026,90.935188 
	C53.311729,91.345016 51.652596,94.212402 52.162746,103.708672 
	C54.013039,109.990959 59.233349,108.904594 63.971344,109.907097 
	C64.557449,112.652206 65.143547,115.397308 66.032883,118.843376 
	C74.286049,124.949570 80.917915,121.383636 83.272057,109.573921 
	C92.049828,108.024460 94.156197,106.899506 94.617485,102.545433 
	C95.072258,98.252892 95.379982,93.732956 89.481583,91.211296 
	C87.304352,91.145164 85.127129,91.079025 82.739845,90.197311 
M166.666489,105.998955 
	C172.024612,105.278778 175.094772,102.285957 173.375793,98.699989 
	C172.388168,96.639748 169.454483,94.269577 167.428146,94.297653 
	C165.378967,94.326057 162.367752,96.755905 161.570724,98.824547 
	C160.310455,102.095497 162.424286,104.756477 166.666489,105.998955 
M151.609818,109.160942 
	C150.688461,109.503845 149.690857,109.718346 148.859161,110.212227 
	C145.539001,112.183723 144.805878,115.641579 146.745514,118.234055 
	C148.107162,120.054031 151.744873,121.362900 154.066132,120.996910 
	C157.645935,120.432495 158.952164,116.785210 157.678711,113.620728 
	C156.917587,111.729347 154.210953,110.620880 151.609818,109.160942 
M153.834808,78.606209 
	C149.595032,77.536911 146.986526,79.465385 146.130188,83.421730 
	C145.414566,86.728027 146.918777,89.802643 150.294067,90.218140 
	C152.423264,90.480255 155.647797,89.291428 156.902588,87.634109 
	C159.390335,84.348267 158.155304,81.063057 153.834808,78.606209 
M130.196182,99.618622 
	C131.454834,104.512650 134.444565,107.236389 137.871597,105.711510 
	C139.929199,104.795967 142.572510,102.029945 142.467957,100.240768 
	C142.343292,98.107414 139.947708,95.117661 137.841583,94.310333 
	C134.271820,92.941956 131.546768,95.193916 130.196182,99.618622 
M121.772163,125.106789 
	C124.215324,125.358681 126.812012,126.205002 129.041382,125.629181 
	C130.286285,125.307648 130.921036,122.623810 131.830719,121.004478 
	C128.928452,120.412590 125.971115,119.177048 123.140228,119.419304 
	C120.576851,119.638657 119.195915,121.851067 121.772163,125.106789 
M105.055946,124.908859 
	C105.364296,123.470985 105.672646,122.033104 105.980995,120.595230 
	C103.498283,120.080078 101.025696,119.269203 98.528275,119.183655 
	C97.403099,119.145111 95.201363,120.687500 95.278633,121.278412 
	C95.470703,122.747124 96.444847,124.971191 97.552467,125.278419 
	C99.654800,125.861557 102.070221,125.315918 105.055946,124.908859 
M36.511841,115.817871 
	C39.752911,117.791061 41.455906,115.834869 41.596481,113.091377 
	C41.673576,111.586769 39.745129,109.979393 38.721001,108.418358 
	C37.546207,110.114861 36.299896,111.769577 35.262020,113.546074 
	C35.073471,113.868805 35.737606,114.689690 36.511841,115.817871 
z"/>
<path fill="#99A7E2" opacity="1.000000" stroke="none" 
	d="
M100.994865,137.805313 
	C91.783684,136.835754 87.253189,142.127518 83.984741,149.858002 
	C79.527771,160.399612 71.193565,165.908707 59.410835,166.371490 
	C59.346245,164.297028 59.671494,162.656143 59.996738,161.015274 
	C69.267403,159.426849 75.387360,154.129242 78.960548,145.462952 
	C82.997879,135.670914 90.048943,130.461258 101.498848,132.388824 
	C101.605515,134.469711 101.300194,136.137512 100.994865,137.805313 
z"/>
<path fill="#79BBED" opacity="1.000000" stroke="none" 
	d="
M90.101372,91.699051 
	C95.379982,93.732956 95.072258,98.252892 94.617485,102.545433 
	C94.156197,106.899506 92.049828,108.024460 83.272057,109.573921 
	C80.917915,121.383636 74.286049,124.949570 66.206543,118.342171 
	C67.677338,116.857323 68.974480,115.873688 70.689598,114.926804 
	C72.659401,114.963570 74.211227,114.963570 76.078781,114.963570 
	C76.078781,112.722710 76.175392,111.247467 76.060570,109.788872 
	C75.722740,105.497604 76.517700,103.064865 81.942184,103.849709 
	C87.855621,104.705299 88.327705,103.748505 88.018051,96.713356 
	C88.739700,94.801338 89.420540,93.250191 90.101372,91.699051 
z"/>
<path fill="#F56EC3" opacity="1.000000" stroke="none" 
	d="
M169.001007,160.974136 
	C179.488556,159.089447 186.543625,153.453293 189.380905,142.360321 
	C191.495712,141.330215 193.172150,140.668060 194.848602,140.005920 
	C197.601807,149.874390 187.865982,161.736298 178.757309,164.694611 
	C174.338074,166.129883 169.379013,165.903076 164.599579,165.921143 
	C167.092682,165.009323 169.793335,164.748779 169.001007,160.974136 
z"/>
<path fill="#41DBFF" opacity="1.000000" stroke="none" 
	d="
M65.995995,66.912460 
	C55.839504,70.266365 48.279392,76.168655 45.552143,87.637367 
	C43.223499,88.996590 41.358208,89.987701 39.492916,90.978813 
	C42.236618,72.342873 53.930199,61.263893 72.316635,60.365700 
	C70.350723,62.737999 68.173363,64.825226 65.995995,66.912460 
z"/>
<path fill="#57CEF7" opacity="1.000000" stroke="none" 
	d="
M52.186275,102.991150 
	C51.652596,94.212402 53.311729,91.345016 59.174026,90.935188 
	C60.615597,90.834419 62.059467,90.766571 63.426128,90.687965 
	C65.641220,78.731972 65.641220,78.731972 76.512451,79.400566 
	C76.271721,81.501640 75.633820,83.174919 74.586807,84.900162 
	C71.016716,84.466652 69.654869,85.871788 69.590286,89.034653 
	C66.832642,91.671364 64.413284,94.269081 61.594341,96.913422 
	C57.831383,96.438866 58.025795,98.868286 57.511372,101.038788 
	C55.509789,101.720985 53.848034,102.356071 52.186275,102.991150 
z"/>
<path fill="#62C8F4" opacity="1.000000" stroke="none" 
	d="
M95.024948,60.564934 
	C99.766563,60.494717 104.508179,60.424500 109.627579,60.798767 
	C109.335007,62.798164 108.664642,64.353088 107.538696,65.964989 
	C103.854195,66.021973 100.625275,66.021973 96.783241,66.021973 
	C97.315689,68.472794 97.685532,70.175156 98.013649,72.220673 
	C96.725388,73.684418 95.478851,74.805023 94.232315,75.925629 
	C93.126289,72.925018 92.020264,69.924416 91.184425,66.363510 
	C92.644722,64.057121 93.834839,62.311024 95.024948,60.564934 
z"/>
<path fill="#BB95D8" opacity="1.000000" stroke="none" 
	d="
M166.273651,105.962616 
	C162.424286,104.756477 160.310455,102.095497 161.570724,98.824547 
	C162.367752,96.755905 165.378967,94.326057 167.428146,94.297653 
	C169.454483,94.269577 172.388168,96.639748 173.375793,98.699989 
	C175.094772,102.285957 172.024612,105.278778 166.273651,105.962616 
z"/>
<path fill="#BB95D8" opacity="1.000000" stroke="none" 
	d="
M151.994324,109.160713 
	C154.210953,110.620880 156.917587,111.729347 157.678711,113.620728 
	C158.952164,116.785210 157.645935,120.432495 154.066132,120.996910 
	C151.744873,121.362900 148.107162,120.054031 146.745514,118.234055 
	C144.805878,115.641579 145.539001,112.183723 148.859161,110.212227 
	C149.690857,109.718346 150.688461,109.503845 151.994324,109.160713 
z"/>
<path fill="#A0A4E0" opacity="1.000000" stroke="none" 
	d="
M154.184387,78.755630 
	C158.155304,81.063057 159.390335,84.348267 156.902588,87.634109 
	C155.647797,89.291428 152.423264,90.480255 150.294067,90.218140 
	C146.918777,89.802643 145.414566,86.728027 146.130188,83.421730 
	C146.986526,79.465385 149.595032,77.536911 154.184387,78.755630 
z"/>
<path fill="#A0A4E0" opacity="1.000000" stroke="none" 
	d="
M130.264313,99.249046 
	C131.546768,95.193916 134.271820,92.941956 137.841583,94.310333 
	C139.947708,95.117661 142.343292,98.107414 142.467957,100.240768 
	C142.572510,102.029945 139.929199,104.795967 137.871597,105.711510 
	C134.444565,107.236389 131.454834,104.512650 130.264313,99.249046 
z"/>
<path fill="#86B7EA" opacity="1.000000" stroke="none" 
	d="
M137.001251,65.970261 
	C136.470657,66.938744 135.731339,67.848961 135.442169,68.884842 
	C132.924301,77.904671 130.206848,79.995667 120.489967,79.553459 
	C121.077644,77.486954 122.031166,75.807831 123.353760,74.068848 
	C127.699997,73.981796 128.749725,70.936798 130.253845,67.977875 
	C132.398026,66.633430 134.199036,65.317558 136.243439,64.165314 
	C136.658310,64.876045 136.829773,65.423157 137.001251,65.970261 
z"/>
<path fill="#E17DCB" opacity="1.000000" stroke="none" 
	d="
M188.182343,132.013565 
	C187.440125,127.630676 186.697891,123.247787 186.338531,118.428795 
	C188.459869,117.334991 190.198364,116.677299 191.936859,116.019608 
	C192.658417,120.387566 193.379974,124.755508 193.673706,129.600204 
	C191.558029,130.722488 189.870193,131.368027 188.182343,132.013565 
z"/>
<path fill="#69C7F3" opacity="1.000000" stroke="none" 
	d="
M32.011726,143.993607 
	C32.316990,139.066635 32.483738,134.122757 33.080341,129.231323 
	C33.167496,128.516769 35.886295,127.267990 36.374348,127.630455 
	C37.488995,128.458282 38.636681,130.158356 38.583714,131.455627 
	C38.464069,134.385925 37.625282,137.286835 36.704430,140.646515 
	C34.890457,142.060074 33.451092,143.026840 32.011726,143.993607 
z"/>
<path fill="#6DC0F1" opacity="1.000000" stroke="none" 
	d="
M107.994278,65.908005 
	C108.664642,64.353088 109.335007,62.798164 110.063232,60.847168 
	C115.091080,60.322010 120.061066,60.192928 125.343079,60.421982 
	C125.102234,62.505268 124.549362,64.230415 123.531982,66.004242 
	C118.043076,66.004616 113.018677,65.956314 107.994278,65.908005 
z"/>
<path fill="#CD8AD2" opacity="1.000000" stroke="none" 
	d="
M184.966141,112.078056 
	C184.260910,108.092751 183.555679,104.107437 183.035385,99.389725 
	C185.036026,97.776260 186.851730,96.895195 188.667450,96.014130 
	C189.139450,99.700348 189.611450,103.386566 189.738022,107.559135 
	C187.917114,109.389671 186.441620,110.733864 184.966141,112.078056 
z"/>
<path fill="#62C8F4" opacity="1.000000" stroke="none" 
	d="
M52.174511,103.349915 
	C53.848034,102.356071 55.509789,101.720985 57.628643,101.432007 
	C61.401783,102.480698 64.717827,103.183289 67.897156,104.193016 
	C66.467590,106.022888 65.174751,107.545631 63.881912,109.068375 
	C59.233349,108.904594 54.013039,109.990959 52.174511,103.349915 
z"/>
<path fill="#76B9ED" opacity="1.000000" stroke="none" 
	d="
M122.984688,74.128700 
	C122.031166,75.807831 121.077644,77.486954 120.057861,79.489204 
	C115.966721,79.855385 111.941856,79.898438 107.464813,79.520416 
	C107.340111,77.437035 107.667580,75.774742 108.439117,74.059082 
	C111.268356,74.040489 113.653519,74.075249 116.221382,74.338074 
	C117.251709,74.422623 118.099335,74.279099 119.349205,74.088669 
	C120.829193,74.070747 121.906944,74.099724 122.984688,74.128700 
z"/>
<path fill="#62C8F4" opacity="1.000000" stroke="none" 
	d="
M74.995918,84.848190 
	C75.633820,83.174919 76.271721,81.501640 76.949371,79.490868 
	C83.083199,80.659576 82.391266,85.699348 82.486038,90.601501 
	C80.469658,92.405533 78.707077,93.805359 76.666000,94.891647 
	C75.923637,91.334801 75.459778,88.091499 74.995918,84.848190 
z"/>
<path fill="#BB95D8" opacity="1.000000" stroke="none" 
	d="
M183.192307,76.899551 
	C184.460419,80.337097 185.728546,83.774635 186.684113,87.757935 
	C184.633667,89.534248 182.895782,90.764816 181.157898,91.995377 
	C180.413223,88.679115 179.668564,85.362839 179.071442,81.353149 
	C180.543427,79.406334 181.867859,78.152946 183.192307,76.899551 
z"/>
<path fill="#B0A4DF" opacity="1.000000" stroke="none" 
	d="
M121.469131,124.851906 
	C119.195915,121.851067 120.576851,119.638657 123.140228,119.419304 
	C125.971115,119.177048 128.928452,120.412590 131.830719,121.004471 
	C130.921036,122.623810 130.286285,125.307648 129.041382,125.629181 
	C126.812012,126.205002 124.215324,125.358681 121.469131,124.851906 
z"/>
<path fill="#4AD7FC" opacity="1.000000" stroke="none" 
	d="
M66.414772,66.935577 
	C68.173363,64.825226 70.350723,62.737999 72.736694,60.404209 
	C76.640999,60.115025 80.336693,60.072395 84.248962,60.332066 
	C82.639961,62.395718 80.814384,64.157066 78.988800,65.918419 
	C78.544876,65.956177 78.100960,65.993935 77.233955,65.821320 
	C76.542648,65.719383 76.274429,65.827812 76.006203,65.936241 
	C72.948654,66.277054 69.891098,66.617867 66.414772,66.935577 
z"/>
<path fill="#57CEF7" opacity="1.000000" stroke="none" 
	d="
M79.444695,65.984497 
	C80.814384,64.157066 82.639961,62.395718 84.702896,60.391747 
	C88.031609,60.240608 91.122963,60.332081 94.619629,60.494240 
	C93.834839,62.311024 92.644722,64.057121 91.132492,65.960220 
	C87.173775,66.095009 83.537186,66.072792 79.444695,65.984497 
z"/>
<path fill="#BB95D8" opacity="1.000000" stroke="none" 
	d="
M125.997330,132.062195 
	C130.241028,132.808304 134.484726,133.554398 138.643524,134.803772 
	C136.980652,136.228668 135.402679,137.150284 133.824707,138.071899 
	C130.847336,138.027344 127.869965,137.982773 124.493027,137.541565 
	C124.728081,135.450684 125.362701,133.756439 125.997330,132.062195 
z"/>
<path fill="#92AFE6" opacity="1.000000" stroke="none" 
	d="
M104.705772,125.073990 
	C102.070221,125.315918 99.654800,125.861557 97.552467,125.278419 
	C96.444847,124.971191 95.470703,122.747124 95.278633,121.278412 
	C95.201363,120.687500 97.403099,119.145111 98.528275,119.183655 
	C101.025696,119.269203 103.498283,120.080078 105.981003,120.595230 
	C105.672646,122.033104 105.364296,123.470985 104.705772,125.073990 
z"/>
<path fill="#A39FDE" opacity="1.000000" stroke="none" 
	d="
M101.452629,137.868225 
	C101.300194,136.137512 101.605515,134.469711 101.952698,132.437714 
	C105.690735,132.033051 109.386909,131.992584 113.500137,132.362885 
	C113.607292,134.450287 113.297386,136.126953 112.987480,137.803604 
	C109.295120,137.846115 105.602753,137.888611 101.452629,137.868225 
z"/>
<path fill="#76B9ED" opacity="1.000000" stroke="none" 
	d="
M123.996498,65.955566 
	C124.549362,64.230415 125.102234,62.505268 125.802109,60.477791 
	C129.326080,60.143959 132.703049,60.112457 136.533997,60.472153 
	C136.658661,61.909458 136.329346,62.955570 136.000046,64.001686 
	C134.199036,65.317558 132.398026,66.633430 130.210648,67.658867 
	C129.208282,66.887733 128.592300,66.407036 127.886833,65.771042 
	C127.535690,65.729225 127.274017,65.842712 126.637009,66.006889 
	C125.506622,66.023567 124.751556,65.989563 123.996498,65.955566 
z"/>
<path fill="#92AFE6" opacity="1.000000" stroke="none" 
	d="
M147.992859,60.169800 
	C152.073410,60.372246 156.153961,60.574692 160.580170,61.268784 
	C159.920288,63.243553 158.914734,64.726677 157.909180,66.209793 
	C155.233902,66.156876 152.558655,66.103951 149.270844,65.770386 
	C148.109802,65.326302 147.561310,65.162857 147.045166,64.643539 
	C147.382645,62.915043 147.687744,61.542423 147.992859,60.169800 
z"/>
<path fill="#92AFE6" opacity="1.000000" stroke="none" 
	d="
M59.622486,160.893677 
	C59.671494,162.656143 59.346245,164.297028 59.014114,166.288483 
	C55.482956,165.989838 51.958687,165.340622 48.241550,164.038055 
	C48.384300,161.871460 48.719917,160.358215 49.055534,158.844986 
	C49.598030,159.002670 50.140526,159.160370 50.913857,159.733215 
	C51.431858,160.092651 51.719017,160.036926 52.006180,159.981201 
	C54.420200,160.244827 56.834217,160.508453 59.622486,160.893677 
z"/>
<path fill="#AE9ADB" opacity="1.000000" stroke="none" 
	d="
M113.443176,137.867889 
	C113.297386,136.126953 113.607292,134.450287 113.959244,132.406097 
	C114.447441,132.010895 114.893578,131.983200 115.759644,132.157104 
	C116.448242,132.257370 116.716911,132.156067 116.985580,132.054764 
	C119.690506,132.026230 122.395432,131.997711 125.548843,132.015686 
	C125.362701,133.756439 124.728081,135.450684 124.047562,137.483383 
	C120.634056,137.858612 117.266464,137.895401 113.443176,137.867889 
z"/>
<path fill="#6DC0F1" opacity="1.000000" stroke="none" 
	d="
M107.995049,74.112442 
	C107.667580,75.774742 107.340111,77.437035 107.004860,79.463333 
	C102.406197,80.351952 98.029800,80.056686 94.362091,76.240875 
	C95.478851,74.805023 96.725388,73.684418 98.339569,72.417419 
	C101.803162,72.884827 104.899109,73.498634 107.995049,74.112442 
z"/>
<path fill="#6DC0F1" opacity="1.000000" stroke="none" 
	d="
M76.944496,95.205185 
	C78.707077,93.805359 80.469658,92.405533 82.591064,91.009293 
	C85.127129,91.079025 87.304352,91.145164 89.791473,91.455170 
	C89.420540,93.250191 88.739700,94.801338 87.572525,96.701065 
	C83.705627,96.434830 80.325058,95.820015 76.944496,95.205185 
z"/>
<path fill="#6DC0F1" opacity="1.000000" stroke="none" 
	d="
M63.926628,109.487732 
	C65.174751,107.545631 66.467590,106.022888 68.297546,104.298950 
	C69.313644,107.695183 69.792625,111.292610 70.271614,114.890045 
	C68.974480,115.873688 67.677338,116.857323 66.054924,117.991692 
	C65.143547,115.397308 64.557449,112.652206 63.926628,109.487732 
z"/>
<path fill="#AE9ADB" opacity="1.000000" stroke="none" 
	d="
M183.096558,76.566727 
	C181.867859,78.152946 180.543427,79.406334 179.032043,80.961472 
	C177.008347,79.016357 175.171600,76.769501 173.317841,73.924606 
	C174.271057,72.179916 175.241302,71.033264 176.211548,69.886627 
	C178.474640,72.002388 180.737717,74.118149 183.096558,76.566727 
z"/>
<path fill="#82B4EA" opacity="1.000000" stroke="none" 
	d="
M147.537628,60.115711 
	C147.687744,61.542423 147.382645,62.915043 147.041092,64.885811 
	C147.004639,65.483955 146.998795,65.968529 146.998795,65.968536 
	C143.967804,65.999084 140.936813,66.029633 137.453537,66.015221 
	C136.829773,65.423157 136.658310,64.876045 136.243439,64.165314 
	C136.329346,62.955570 136.658661,61.909458 136.988312,60.531792 
	C140.353226,60.154030 143.717804,60.107826 147.537628,60.115711 
z"/>
<path fill="#E17DCB" opacity="1.000000" stroke="none" 
	d="
M157.912262,164.155899 
	C155.033554,162.315048 152.154861,160.474182 149.275391,158.030121 
	C150.252548,156.243698 151.230499,155.060486 152.208450,153.877289 
	C154.694946,155.583420 157.181458,157.289566 159.867401,159.615295 
	C159.348648,161.541885 158.630463,162.848892 157.912262,164.155899 
z"/>
<path fill="#99A7E2" opacity="1.000000" stroke="none" 
	d="
M158.182281,66.434311 
	C158.914734,64.726677 159.920288,63.243553 160.960846,61.430649 
	C163.901581,62.123108 166.807312,63.145351 169.789963,64.752052 
	C168.863876,66.663284 167.860870,67.990059 166.857864,69.316833 
	C164.057037,68.430832 161.256195,67.544830 158.182281,66.434311 
z"/>
<path fill="#76B9ED" opacity="1.000000" stroke="none" 
	d="
M38.230110,146.891663 
	C39.754833,149.287613 41.279560,151.683548 42.913712,154.742065 
	C41.681721,156.269775 40.340305,157.134918 38.998890,158.000076 
	C37.110065,155.219025 35.221237,152.437958 33.603920,149.283051 
	C35.326988,148.236679 36.778549,147.564163 38.230110,146.891663 
z"/>
<path fill="#EC71C6" opacity="1.000000" stroke="none" 
	d="
M188.161758,132.364609 
	C189.870193,131.368027 191.558029,130.722488 193.591339,130.039276 
	C193.996201,130.613098 194.055588,131.224594 194.097382,132.530243 
	C194.359512,134.136978 194.639252,135.049591 194.919006,135.962204 
	C194.934692,137.042496 194.950394,138.122787 194.907349,139.604492 
	C193.172150,140.668060 191.495712,141.330215 189.469543,141.998291 
	C189.059189,139.997467 188.998581,137.990692 188.916397,135.354034 
	C188.807907,134.461304 188.651855,134.249420 188.426697,134.088486 
	C188.331528,133.630875 188.236359,133.173264 188.161758,132.364609 
z"/>
<path fill="#D683CE" opacity="1.000000" stroke="none" 
	d="
M184.953796,112.514008 
	C186.441620,110.733864 187.917114,109.389671 189.750015,108.004280 
	C190.739548,110.380669 191.371658,112.798271 191.970306,115.617737 
	C190.198364,116.677299 188.459869,117.334991 186.358109,117.997040 
	C185.994827,118.001381 186.000610,118.000275 185.959885,117.860832 
	C185.852112,117.538383 185.752716,117.375076 185.620972,117.231476 
	C185.394470,115.804306 185.167969,114.377136 184.953796,112.514008 
z"/>
<path fill="#EC71C6" opacity="1.000000" stroke="none" 
	d="
M158.157852,164.413513 
	C158.630463,162.848892 159.348648,161.541885 160.100372,159.829361 
	C162.840469,159.852310 165.547073,160.280777 168.627335,160.841705 
	C169.793335,164.748779 167.092682,165.009323 164.281281,165.684662 
	C162.153000,165.527588 160.278214,165.099365 158.157852,164.413513 
z"/>
<path fill="#C591D5" opacity="1.000000" stroke="none" 
	d="
M181.128448,92.381126 
	C182.895782,90.764816 184.633667,89.534248 186.663589,88.159927 
	C187.548080,90.427399 188.140533,92.838631 188.700226,95.631989 
	C186.851730,96.895195 185.036026,97.776260 183.024506,98.963577 
	C182.252106,97.102180 181.675537,94.934532 181.128448,92.381126 
z"/>
<path fill="#4AD7FC" opacity="1.000000" stroke="none" 
	d="
M39.336842,91.251999 
	C41.358208,89.987701 43.223499,88.996590 45.438942,87.997597 
	C45.552898,89.440063 45.264908,90.884254 45.091797,92.342094 
	C44.777290,94.990654 44.639282,98.302803 40.971172,97.639526 
	C37.491062,97.010254 38.728008,93.905136 39.336842,91.251999 
z"/>
<path fill="#62D2F8" opacity="1.000000" stroke="none" 
	d="
M36.259972,115.549240 
	C35.737606,114.689690 35.073471,113.868805 35.262020,113.546074 
	C36.299896,111.769577 37.546207,110.114861 38.721001,108.418358 
	C39.745129,109.979393 41.673576,111.586769 41.596481,113.091377 
	C41.455906,115.834869 39.752911,117.791061 36.259972,115.549240 
z"/>
<path fill="#86B7EA" opacity="1.000000" stroke="none" 
	d="
M39.145576,158.303284 
	C40.340305,157.134918 41.681721,156.269775 43.098175,155.015747 
	C45.008961,155.857117 46.844715,157.087357 48.868000,158.581299 
	C48.719917,160.358215 48.384300,161.871460 47.996429,163.772827 
	C45.060204,162.309479 42.176235,160.457977 39.145576,158.303284 
z"/>
<path fill="#CD8AD2" opacity="1.000000" stroke="none" 
	d="
M143.197433,138.664337 
	C144.468689,140.804977 145.739944,142.945633 147.019806,145.843185 
	C145.985184,147.744156 144.941925,148.888229 143.898666,150.032288 
	C142.681854,147.882843 141.465027,145.733414 140.284607,142.966064 
	C141.279816,141.120224 142.238632,139.892273 143.197433,138.664337 
z"/>
<path fill="#A0A4E0" opacity="1.000000" stroke="none" 
	d="
M167.059998,69.560135 
	C167.860870,67.990059 168.863876,66.663284 170.020233,65.006454 
	C172.140121,66.184540 174.106659,67.692673 176.142380,69.543716 
	C175.241302,71.033264 174.271057,72.179916 173.174103,73.625259 
	C171.118973,72.550453 169.190552,71.176941 167.059998,69.560135 
z"/>
<path fill="#D683CE" opacity="1.000000" stroke="none" 
	d="
M143.957947,150.381256 
	C144.941925,148.888229 145.985184,147.744156 147.054413,146.185150 
	C148.710251,148.257538 150.340118,150.744873 152.089218,153.554749 
	C151.230499,155.060486 150.252548,156.243698 149.132568,157.726059 
	C147.332764,155.593552 145.674988,153.161896 143.957947,150.381256 
z"/>
<path fill="#C591D5" opacity="1.000000" stroke="none" 
	d="
M143.099411,138.364349 
	C142.238632,139.892273 141.279816,141.120224 140.179962,142.639008 
	C138.118530,141.474655 136.198166,140.019470 134.051254,138.318085 
	C135.402679,137.150284 136.980652,136.228668 138.859436,135.104523 
	C140.440643,135.956131 141.721008,137.010239 143.099411,138.364349 
z"/>
<path fill="#6DC0F1" opacity="1.000000" stroke="none" 
	d="
M38.189106,146.512573 
	C36.778549,147.564163 35.326988,148.236679 33.543797,148.948639 
	C32.798092,147.572723 32.384022,146.157379 31.990839,144.367813 
	C33.451092,143.026840 34.890457,142.060074 36.653206,141.046112 
	C37.367092,142.710449 37.757599,144.421967 38.189106,146.512573 
z"/>
<path fill="#F56EC3" opacity="1.000000" stroke="none" 
	d="
M195.113708,135.758743 
	C194.639252,135.049591 194.359512,134.136978 194.106934,132.837585 
	C194.525543,133.485641 194.916977,134.520462 195.113708,135.758743 
z"/>
<path fill="#86B7EA" opacity="1.000000" stroke="none" 
	d="
M147.329803,66.014618 
	C146.998795,65.968529 147.004639,65.483955 147.008728,65.241684 
	C147.561310,65.162857 148.109802,65.326302 148.824768,65.730026 
	C148.547745,66.000443 148.104279,66.030579 147.329803,66.014618 
z"/>
<path fill="#E17DCB" opacity="1.000000" stroke="none" 
	d="
M188.403320,134.300491 
	C188.651855,134.249420 188.807907,134.461304 188.927399,134.924606 
	C188.687531,134.995651 188.494186,134.791458 188.403320,134.300491 
z"/>
<path fill="#E17DCB" opacity="1.000000" stroke="none" 
	d="
M185.586182,117.388443 
	C185.752716,117.375076 185.852112,117.538383 185.959045,117.864197 
	C185.789200,117.911606 185.640030,117.757744 185.586182,117.388443 
z"/>
<path fill="#57CEF7" opacity="1.000000" stroke="none" 
	d="
M76.254395,65.980507 
	C76.274429,65.827812 76.542648,65.719383 76.903320,65.765419 
	C76.831383,65.954834 76.666985,65.989799 76.254395,65.980507 
z"/>
<path fill="#A39FDE" opacity="1.000000" stroke="none" 
	d="
M116.741379,132.018066 
	C116.716911,132.156067 116.448242,132.257370 116.093033,132.198227 
	C116.006500,132.037781 116.497169,131.981369 116.741379,132.018066 
z"/>
<path fill="#86B7EA" opacity="1.000000" stroke="none" 
	d="
M51.775314,159.907654 
	C51.719017,160.036926 51.431858,160.092651 51.107307,159.942093 
	C51.069923,159.735809 51.544445,159.834106 51.775314,159.907654 
z"/>
<path fill="#FBFEFF" opacity="1.000000" stroke="none" 
	d="
M70.689598,114.926804 
	C69.792625,111.292610 69.313644,107.695183 68.434265,103.991821 
	C64.717827,103.183289 61.401783,102.480698 57.968468,101.384888 
	C58.025795,98.868286 57.831383,96.438866 62.027275,96.970108 
	C70.268837,97.060860 70.346977,96.972603 69.928574,88.995644 
	C69.654869,85.871788 71.016716,84.466652 74.586807,84.900162 
	C75.459778,88.091499 75.923637,91.334801 76.666000,94.891647 
	C80.325058,95.820015 83.705627,96.434830 87.531723,97.061943 
	C88.327705,103.748505 87.855621,104.705299 81.942184,103.849709 
	C76.517700,103.064865 75.722740,105.497604 76.060570,109.788872 
	C76.175392,111.247467 76.078781,112.722710 76.078781,114.963570 
	C74.211227,114.963570 72.659401,114.963570 70.689598,114.926804 
z"/>
<path fill="#62C8F4" opacity="1.000000" stroke="none" 
	d="
M69.590286,89.034653 
	C70.346977,96.972603 70.268837,97.060860 62.426857,96.923485 
	C64.413284,94.269081 66.832642,91.671364 69.590286,89.034653 
z"/>
<path fill="#FBFEFF" opacity="1.000000" stroke="none" 
	d="
M108.439117,74.059082 
	C104.899109,73.498634 101.803162,72.884827 98.381302,72.074272 
	C97.685532,70.175156 97.315689,68.472794 96.783241,66.021973 
	C100.625275,66.021973 103.854195,66.021973 107.538696,65.964989 
	C113.018677,65.956314 118.043076,66.004616 123.531982,66.004242 
	C124.751556,65.989563 125.506622,66.023567 126.879150,66.037491 
	C127.496613,66.017403 127.976303,65.926338 127.976303,65.926338 
	C128.592300,66.407036 129.208282,66.887733 129.867477,67.687439 
	C128.749725,70.936798 127.699997,73.981796 123.353760,74.068848 
	C121.906944,74.099724 120.829193,74.070747 118.988571,74.030502 
	C117.496681,74.049507 116.767685,74.079758 116.038681,74.110008 
	C113.653519,74.075249 111.268356,74.040489 108.439117,74.059082 
z"/>
<path fill="#6DC0F1" opacity="1.000000" stroke="none" 
	d="
M116.221382,74.338074 
	C116.767685,74.079758 117.496681,74.049507 118.586319,74.077408 
	C118.099335,74.279099 117.251709,74.422623 116.221382,74.338074 
z"/>
<path fill="#6DC0F1" opacity="1.000000" stroke="none" 
	d="
M127.886833,65.771042 
	C127.976303,65.926338 127.496613,66.017403 127.254478,65.986801 
	C127.274017,65.842712 127.535690,65.729225 127.886833,65.771042 
z"/>
</svg>